<svg width="33" height="33" viewBox="0 0 33 33" fill="none" xmlns="http://www.w3.org/2000/svg">
<path d="M9.66649 0.115397C7.91087 0.198228 6.71197 0.478399 5.66387 0.89024C4.57915 1.31297 3.65976 1.88024 2.74499 2.79831C1.83023 3.71637 1.26691 4.63641 0.847145 5.72278C0.440911 6.77317 0.165688 7.97305 0.0881377 9.72965C0.0105869 11.4862 -0.00657331 12.0509 0.00200678 16.5316C0.0105869 21.0124 0.0303871 21.5741 0.115528 23.3343C0.199349 25.0896 0.478532 26.2881 0.890376 27.3365C1.31377 28.4212 1.88039 29.3403 2.79878 30.2554C3.71718 31.1705 4.63657 31.7325 5.72558 32.1529C6.775 32.5585 7.97522 32.835 9.7315 32.9119C11.4878 32.9888 12.0531 33.0066 16.5325 32.998C21.012 32.9895 21.576 32.9697 23.3359 32.8862C25.0958 32.8027 26.2881 32.5215 27.3368 32.1116C28.4216 31.6873 29.3413 31.1216 30.2557 30.2029C31.1702 29.2842 31.7331 28.3635 32.1526 27.2765C32.5591 26.2271 32.8354 25.0269 32.9116 23.2719C32.9885 21.5107 33.0066 20.9484 32.9981 16.4683C32.9895 11.9882 32.9693 11.4265 32.8859 9.66695C32.8024 7.90738 32.5228 6.71245 32.1113 5.66338C31.6873 4.57866 31.1213 3.66027 30.2033 2.74452C29.2852 1.82876 28.3638 1.26611 27.2771 0.84767C26.227 0.441439 25.0275 0.164568 23.2712 0.0886674C21.5149 0.0127671 20.9496 -0.00670296 16.4685 0.00187707C11.9874 0.0104571 11.4264 0.0295972 9.66649 0.115397ZM9.85921 29.9435C8.25044 29.8736 7.37692 29.6063 6.7948 29.3825C6.02391 29.0855 5.47478 28.7265 4.89464 28.152C4.31449 27.5774 3.95809 27.0263 3.65712 26.2571C3.43107 25.675 3.15882 24.8025 3.08358 23.1937C3.00174 21.4549 2.98458 20.9329 2.97501 16.5277C2.96544 12.1225 2.98227 11.6011 3.0585 9.86165C3.12714 8.25422 3.39609 7.37971 3.6195 6.79792C3.91651 6.02605 4.27423 5.47792 4.85009 4.8981C5.42594 4.31829 5.9754 3.96123 6.7453 3.66027C7.32676 3.43323 8.19929 3.16329 9.8074 3.08673C11.5475 3.00423 12.0689 2.98773 16.4735 2.97816C20.878 2.96859 21.4007 2.98509 23.1415 3.06165C24.749 3.13161 25.6238 3.39792 26.2049 3.62265C26.9762 3.91965 27.5249 4.27638 28.1048 4.85322C28.6846 5.43007 29.042 5.97754 29.3429 6.74908C29.5703 7.32889 29.8402 8.20109 29.9161 9.81017C29.999 11.5503 30.0178 12.072 30.0257 16.4762C30.0336 20.8804 30.0181 21.4034 29.9419 23.1422C29.8716 24.751 29.605 25.6248 29.3809 26.2076C29.0839 26.9782 28.7258 27.5276 28.1496 28.1071C27.5735 28.6866 27.0247 29.0436 26.2544 29.3446C25.6736 29.5713 24.8001 29.8419 23.1933 29.9185C21.4532 30.0003 20.9318 30.0175 16.5256 30.027C12.1194 30.0366 11.5996 30.0188 9.85954 29.9435M23.3105 7.68133C23.3111 8.07297 23.4279 8.45562 23.646 8.78088C23.8642 9.10614 24.1739 9.3594 24.536 9.50864C24.8981 9.65788 25.2963 9.69639 25.6803 9.6193C26.0642 9.5422 26.4167 9.35297 26.6931 9.07554C26.9696 8.7981 27.1575 8.44492 27.2332 8.06067C27.3089 7.67642 27.2689 7.27835 27.1183 6.91681C26.9678 6.55527 26.7134 6.24651 26.3873 6.02956C26.0612 5.81262 25.6782 5.69724 25.2865 5.69803C24.7615 5.69908 24.2584 5.9086 23.8878 6.28052C23.5173 6.65245 23.3096 7.15632 23.3105 7.68133ZM8.02802 16.5165C8.03726 21.1959 11.8376 24.9807 16.516 24.9717C21.1945 24.9628 24.9819 21.1629 24.973 16.4835C24.9641 11.804 21.1628 8.01826 16.4837 8.0275C11.8046 8.03675 8.01911 11.8377 8.02802 16.5165ZM11 16.5105C10.9979 15.4227 11.3184 14.3587 11.9209 13.453C12.5235 12.5473 13.3811 11.8406 14.3853 11.4224C15.3895 11.0041 16.4952 10.893 17.5625 11.1031C18.6299 11.3132 19.6109 11.8351 20.3817 12.6028C21.1524 13.3704 21.6782 14.3494 21.8925 15.4159C22.1069 16.4824 22.0001 17.5885 21.5858 18.5944C21.1715 19.6002 20.4683 20.4606 19.565 21.0668C18.6617 21.6729 17.5989 21.9976 16.5111 21.9998C15.7888 22.0013 15.0732 21.8605 14.4053 21.5854C13.7374 21.3104 13.1303 20.9064 12.6185 20.3967C12.1067 19.887 11.7004 19.2814 11.4227 18.6146C11.145 17.9478 11.0014 17.2328 11 16.5105Z" fill="#413F43"/>
</svg>
