<svg width="37" height="37" viewBox="0 0 37 37" fill="none" xmlns="http://www.w3.org/2000/svg">
<g clip-path="url(#clip0_272_834)">
<path d="M10.8379 0.129385C8.86955 0.222255 7.52534 0.536385 6.35022 0.998145C5.13403 1.47211 4.10321 2.10814 3.07757 3.13748C2.05193 4.16682 1.42034 5.19838 0.949698 6.41642C0.494228 7.59413 0.185648 8.93946 0.0986979 10.909C0.0117479 12.8785 -0.00749207 13.5115 0.00212793 18.5354C0.0117479 23.5593 0.0339479 24.189 0.129408 26.1626C0.223388 28.1306 0.536408 29.4745 0.998168 30.6499C1.47288 31.8661 2.10817 32.8966 3.13788 33.9226C4.16759 34.9486 5.19841 35.5787 6.41941 36.0501C7.59601 36.5048 8.9417 36.8149 10.9108 36.9011C12.88 36.9873 13.5138 37.0073 18.5362 36.9977C23.5585 36.988 24.1909 36.9658 26.1641 36.8722C28.1373 36.7786 29.4741 36.4634 30.65 36.0038C31.8662 35.528 32.8973 34.8938 33.9226 33.8638C34.9479 32.8337 35.5791 31.8014 36.0494 30.5826C36.5052 29.406 36.8149 28.0603 36.9004 26.0927C36.9866 24.118 37.0069 23.4875 36.9973 18.4644C36.9877 13.4412 36.9651 12.8115 36.8715 10.8387C36.7779 8.86582 36.4645 7.52605 36.0031 6.34982C35.5277 5.13363 34.8931 4.10392 33.8638 3.07717C32.8344 2.05042 31.8014 1.41957 30.583 0.950415C29.4057 0.494945 28.0607 0.184515 26.0916 0.0994146C24.1224 0.0143146 23.4886 -0.00751542 18.4644 0.00210458C13.4402 0.0117246 12.8112 0.0331846 10.8379 0.129385ZM11.054 33.5729C9.25028 33.4945 8.27089 33.1948 7.61821 32.9439C6.75389 32.6109 6.13821 32.2084 5.48775 31.5642C4.83729 30.92 4.43769 30.3021 4.10025 29.4397C3.8468 28.787 3.54155 27.8087 3.45719 26.005C3.36543 24.0554 3.34619 23.4701 3.33546 18.531C3.32473 13.5918 3.3436 13.0072 3.42907 11.057C3.50603 9.25469 3.80758 8.27419 4.05807 7.62188C4.39107 6.75645 4.79215 6.14188 5.4378 5.49179C6.08345 4.8417 6.6995 4.44136 7.56271 4.10392C8.21465 3.84936 9.19293 3.5467 10.9959 3.46086C12.9469 3.36836 13.5315 3.34986 18.4699 3.33913C23.4083 3.3284 23.9944 3.3469 25.9462 3.43274C27.7484 3.51118 28.7293 3.80977 29.3809 4.06174C30.2456 4.39474 30.8609 4.79472 31.511 5.44148C32.161 6.08824 32.5618 6.70206 32.8992 7.56713C33.1541 8.21722 33.4568 9.19512 33.5419 10.9992C33.6348 12.9503 33.6558 13.5352 33.6647 18.4732C33.6736 23.4113 33.6562 23.9977 33.5707 25.9472C33.4919 27.751 33.193 28.7308 32.9417 29.3842C32.6087 30.2481 32.2073 30.8642 31.5613 31.5139C30.9153 32.1636 30.2999 32.564 29.4364 32.9014C28.7852 33.1556 27.8058 33.459 26.0042 33.5448C24.0532 33.6366 23.4686 33.6558 18.5284 33.6666C13.5882 33.6773 13.0054 33.6573 11.0544 33.5729M26.1356 8.61238C26.1363 9.05148 26.2673 9.48051 26.5118 9.84519C26.7564 10.2099 27.1037 10.4938 27.5096 10.6612C27.9156 10.8285 28.3621 10.8717 28.7926 10.7852C29.2231 10.6988 29.6183 10.4866 29.9282 10.1756C30.2382 9.8645 30.4489 9.46852 30.5337 9.03769C30.6186 8.60686 30.5738 8.16054 30.405 7.75519C30.2362 7.34983 29.9509 7.00364 29.5853 6.7604C29.2198 6.51716 28.7903 6.3878 28.3512 6.38867C27.7625 6.38985 27.1984 6.62477 26.7829 7.04177C26.3675 7.45878 26.1346 8.02372 26.1356 8.61238ZM9.0009 18.5184C9.01126 23.765 13.2722 28.0085 18.5177 27.9985C23.7632 27.9885 28.0096 23.728 27.9997 18.4814C27.9897 13.2348 23.7276 8.99014 18.4814 9.0005C13.2352 9.01087 8.99091 13.2725 9.0009 18.5184ZM12.3331 18.5117C12.3307 17.2921 12.69 16.0991 13.3656 15.0836C14.0412 14.0681 15.0028 13.2758 16.1287 12.8068C17.2546 12.3379 18.4943 12.2133 19.691 12.4489C20.8877 12.6844 21.9877 13.2696 22.8518 14.1303C23.716 14.9911 24.3055 16.0887 24.5458 17.2845C24.7861 18.4802 24.6664 19.7204 24.2019 20.8482C23.7374 21.9759 22.9489 22.9406 21.9361 23.6202C20.9234 24.2999 19.7318 24.6639 18.5121 24.6663C17.7023 24.668 16.9 24.5102 16.1511 24.2018C15.4023 23.8934 14.7215 23.4405 14.1477 22.8689C13.5739 22.2974 13.1184 21.6185 12.807 20.8708C12.4957 20.1232 12.3346 19.3216 12.3331 18.5117Z" fill="white"/>
</g>
<defs>
<clipPath id="clip0_272_834">
<rect width="37" height="37" fill="white"/>
</clipPath>
</defs>
</svg>
